# xmcd
#
# Track frame offsets:
# 150
# 13379
# 28599
# 44875
# 58231
# 73003
# 86645
# 100932
# 116296
# 131176
# 144865
# 160229
# 174865
# 186530
# 200728
# 216092
# 230118
# 243358
#
# Disc length: 3434 seconds
#
#
# Revision: 0
# Processed by: cddbd v1.5.2PL0 Copyright (c) Steve Scherf et al.
# Submitted via: FreeRIP 2.35 
#
DISCID=130d6812
DTITLE=Roosevelt Sykes - The Honey Dripper
DYEAR=2000
DGENRE=Blues
TTITLE0=The Honey Dripper
TTITLE1=32-20 Blues
TTITLE2=Jivin' The Jive
TTITLE3=Sykes Advice Blues
TTITLE4=She's In My Blood
TTITLE5=Honeysuckle Rose
TTITLE6=Back That Thing
TTITLE7=47th Street Jive
TTITLE8=Give Me Your Change
TTITLE9=Roosevelt's Blues
TTITLE10=Ten and Four Blues
TTITLE11=44' Blues
TTITLE12=Sad and Lovely Day
TTITLE13=Ups and Downs Blues
TTITLE14=DBA Blues
TTITLE15=Love Will Wear You Down
TTITLE16=15 Cents A Day
TTITLE17=Melow Queen
EXTD=
EXTT0=
EXTT1=
EXTT2=
EXTT3=
EXTT4=
EXTT5=
EXTT6=
EXTT7=
EXTT8=
EXTT9=
EXTT10=
EXTT11=
EXTT12=
EXTT13=
EXTT14=
EXTT15=
EXTT16=
EXTT17=
PLAYORDER=
